<mxfile host="Electron" modified="2024-03-07T10:49:57.927Z" agent="Mozilla/5.0 (Windows NT 10.0; Win64; x64) AppleWebKit/537.36 (KHTML, like Gecko) draw.io/23.1.5 Chrome/120.0.6099.109 Electron/28.1.0 Safari/537.36" etag="51mkfenjwt_4uO4TK5_I" version="23.1.5" type="device">
  <diagram name="Use-case diagram" id="-hcLdymIl5YI1UWwQXHo">
    <mxGraphModel dx="2307" dy="866" grid="1" gridSize="10" guides="1" tooltips="1" connect="1" arrows="1" fold="1" page="1" pageScale="1" pageWidth="827" pageHeight="1169" math="0" shadow="0">
      <root>
        <mxCell id="0" />
        <mxCell id="1" parent="0" />
        <mxCell id="OODzUO_T71VTLAaAEDP0-20" value="" style="rounded=0;whiteSpace=wrap;html=1;fillColor=default;strokeWidth=2;movable=0;resizable=0;rotatable=0;deletable=0;editable=0;locked=1;connectable=0;" parent="1" vertex="1">
          <mxGeometry y="80" width="780" height="640" as="geometry" />
        </mxCell>
        <mxCell id="OODzUO_T71VTLAaAEDP0-21" value="" style="rounded=1;whiteSpace=wrap;html=1;strokeWidth=2;fillColor=#eeeeee;strokeColor=#36393d;" parent="1" vertex="1">
          <mxGeometry x="169" y="110" width="580" height="580" as="geometry" />
        </mxCell>
        <mxCell id="OODzUO_T71VTLAaAEDP0-1" value="&lt;font style=&quot;&quot;&gt;&lt;span style=&quot;font-size: 16px;&quot;&gt;Система &lt;br&gt;бронирования&lt;/span&gt;&lt;br style=&quot;border-color: var(--border-color);&quot;&gt;&lt;font style=&quot;font-size: 14px;&quot;&gt;(System)&lt;/font&gt;&lt;/font&gt;" style="shape=umlActor;verticalLabelPosition=bottom;verticalAlign=top;html=1;outlineConnect=0;fillColor=#cce5ff;strokeColor=#36393d;strokeWidth=2;" parent="1" vertex="1">
          <mxGeometry x="50" y="200" width="50" height="100" as="geometry" />
        </mxCell>
        <mxCell id="OODzUO_T71VTLAaAEDP0-4" value="&lt;font style=&quot;&quot;&gt;&lt;span style=&quot;font-size: 16px;&quot;&gt;Продажа билетов&lt;/span&gt;&lt;br&gt;&lt;/font&gt;" style="ellipse;whiteSpace=wrap;html=1;fillColor=#cce5ff;strokeColor=#36393d;strokeWidth=2;" parent="1" vertex="1">
          <mxGeometry x="223.5" y="130" width="171" height="80" as="geometry" />
        </mxCell>
        <mxCell id="OODzUO_T71VTLAaAEDP0-22" value="&lt;font style=&quot;font-size: 20px;&quot;&gt;Use-case diagram (диаграмма вариантов использования)&lt;/font&gt;" style="rounded=0;whiteSpace=wrap;html=1;fillColor=#cce5ff;strokeWidth=2;strokeColor=#36393d;" parent="1" vertex="1">
          <mxGeometry y="40" width="780" height="40" as="geometry" />
        </mxCell>
        <mxCell id="KhoYuqrmlgVew_wyf3ry-1" value="&lt;font style=&quot;&quot;&gt;&lt;span style=&quot;font-size: 16px;&quot;&gt;Administrator&lt;/span&gt;&lt;br style=&quot;border-color: var(--border-color);&quot;&gt;&lt;font style=&quot;font-size: 14px;&quot;&gt;(Администратор)&lt;/font&gt;&lt;/font&gt;" style="shape=umlActor;verticalLabelPosition=bottom;verticalAlign=top;html=1;outlineConnect=0;fillColor=#cce5ff;strokeColor=#36393d;strokeWidth=2;" parent="1" vertex="1">
          <mxGeometry x="50" y="450" width="50" height="100" as="geometry" />
        </mxCell>
        <mxCell id="KhoYuqrmlgVew_wyf3ry-2" value="&lt;font style=&quot;&quot;&gt;&lt;span style=&quot;font-size: 16px;&quot;&gt;Отмена билетов&lt;/span&gt;&lt;br&gt;&lt;/font&gt;" style="ellipse;whiteSpace=wrap;html=1;fillColor=#cce5ff;strokeColor=#36393d;strokeWidth=2;" parent="1" vertex="1">
          <mxGeometry x="223.5" y="220" width="171" height="80" as="geometry" />
        </mxCell>
        <mxCell id="KhoYuqrmlgVew_wyf3ry-3" value="&lt;font style=&quot;&quot;&gt;&lt;span style=&quot;font-size: 16px;&quot;&gt;Просмотр билетов&lt;/span&gt;&lt;br&gt;&lt;/font&gt;" style="ellipse;whiteSpace=wrap;html=1;fillColor=#cce5ff;strokeColor=#36393d;strokeWidth=2;" parent="1" vertex="1">
          <mxGeometry x="223.5" y="310" width="171" height="80" as="geometry" />
        </mxCell>
        <mxCell id="KhoYuqrmlgVew_wyf3ry-4" value="&lt;font style=&quot;&quot;&gt;&lt;span style=&quot;font-size: 16px;&quot;&gt;Регистрация на рейс&lt;/span&gt;&lt;br&gt;&lt;/font&gt;" style="ellipse;whiteSpace=wrap;html=1;fillColor=#cce5ff;strokeColor=#36393d;strokeWidth=2;" parent="1" vertex="1">
          <mxGeometry x="223.5" y="400" width="171" height="80" as="geometry" />
        </mxCell>
        <mxCell id="KhoYuqrmlgVew_wyf3ry-5" value="&lt;font style=&quot;&quot;&gt;&lt;span style=&quot;font-size: 16px;&quot;&gt;Просмотр информации о пассажирах&lt;/span&gt;&lt;br&gt;&lt;/font&gt;" style="ellipse;whiteSpace=wrap;html=1;fillColor=#cce5ff;strokeColor=#36393d;strokeWidth=2;" parent="1" vertex="1">
          <mxGeometry x="223.5" y="490" width="171" height="80" as="geometry" />
        </mxCell>
        <mxCell id="KhoYuqrmlgVew_wyf3ry-6" value="&lt;font style=&quot;&quot;&gt;&lt;span style=&quot;font-size: 16px;&quot;&gt;Регистрация на рейс&lt;/span&gt;&lt;br&gt;&lt;/font&gt;" style="ellipse;whiteSpace=wrap;html=1;fillColor=#cce5ff;strokeColor=#36393d;strokeWidth=2;" parent="1" vertex="1">
          <mxGeometry x="223.5" y="584.5" width="171" height="80" as="geometry" />
        </mxCell>
        <mxCell id="KhoYuqrmlgVew_wyf3ry-18" style="edgeStyle=orthogonalEdgeStyle;rounded=0;orthogonalLoop=1;jettySize=auto;html=1;entryX=1;entryY=0.5;entryDx=0;entryDy=0;dashed=1;" parent="1" source="KhoYuqrmlgVew_wyf3ry-7" target="OODzUO_T71VTLAaAEDP0-4" edge="1">
          <mxGeometry relative="1" as="geometry" />
        </mxCell>
        <mxCell id="KhoYuqrmlgVew_wyf3ry-7" value="&lt;font style=&quot;&quot;&gt;&lt;span style=&quot;font-size: 16px;&quot;&gt;Предложение специальных скидок&lt;/span&gt;&lt;br&gt;&lt;/font&gt;" style="ellipse;whiteSpace=wrap;html=1;fillColor=#cce5ff;strokeColor=#36393d;strokeWidth=2;" parent="1" vertex="1">
          <mxGeometry x="490" y="130" width="200" height="80" as="geometry" />
        </mxCell>
        <mxCell id="KhoYuqrmlgVew_wyf3ry-8" value="&lt;font style=&quot;&quot;&gt;&lt;span style=&quot;font-size: 16px;&quot;&gt;Проверка наличия мест&lt;/span&gt;&lt;br&gt;&lt;/font&gt;" style="ellipse;whiteSpace=wrap;html=1;fillColor=#cce5ff;strokeColor=#36393d;strokeWidth=2;" parent="1" vertex="1">
          <mxGeometry x="490" y="270" width="200" height="80" as="geometry" />
        </mxCell>
        <mxCell id="KhoYuqrmlgVew_wyf3ry-9" value="" style="endArrow=classic;html=1;rounded=0;entryX=0;entryY=0.5;entryDx=0;entryDy=0;" parent="1" target="OODzUO_T71VTLAaAEDP0-4" edge="1">
          <mxGeometry width="50" height="50" relative="1" as="geometry">
            <mxPoint x="100" y="230" as="sourcePoint" />
            <mxPoint x="410" y="320" as="targetPoint" />
          </mxGeometry>
        </mxCell>
        <mxCell id="KhoYuqrmlgVew_wyf3ry-11" value="" style="endArrow=classic;html=1;rounded=0;entryX=0;entryY=0.5;entryDx=0;entryDy=0;" parent="1" target="KhoYuqrmlgVew_wyf3ry-2" edge="1">
          <mxGeometry width="50" height="50" relative="1" as="geometry">
            <mxPoint x="100" y="240" as="sourcePoint" />
            <mxPoint x="223.5" y="408.5" as="targetPoint" />
          </mxGeometry>
        </mxCell>
        <mxCell id="KhoYuqrmlgVew_wyf3ry-13" value="" style="endArrow=classic;html=1;rounded=0;entryX=0;entryY=0.5;entryDx=0;entryDy=0;" parent="1" target="KhoYuqrmlgVew_wyf3ry-2" edge="1">
          <mxGeometry width="50" height="50" relative="1" as="geometry">
            <mxPoint x="100" y="460" as="sourcePoint" />
            <mxPoint x="237" y="195" as="targetPoint" />
          </mxGeometry>
        </mxCell>
        <mxCell id="KhoYuqrmlgVew_wyf3ry-14" value="" style="endArrow=classic;html=1;rounded=0;entryX=0;entryY=0.5;entryDx=0;entryDy=0;" parent="1" source="KhoYuqrmlgVew_wyf3ry-1" target="KhoYuqrmlgVew_wyf3ry-3" edge="1">
          <mxGeometry width="50" height="50" relative="1" as="geometry">
            <mxPoint x="130" y="500" as="sourcePoint" />
            <mxPoint x="234" y="270" as="targetPoint" />
          </mxGeometry>
        </mxCell>
        <mxCell id="KhoYuqrmlgVew_wyf3ry-15" value="" style="endArrow=classic;html=1;rounded=0;entryX=0;entryY=0.5;entryDx=0;entryDy=0;" parent="1" source="KhoYuqrmlgVew_wyf3ry-1" target="KhoYuqrmlgVew_wyf3ry-4" edge="1">
          <mxGeometry width="50" height="50" relative="1" as="geometry">
            <mxPoint x="140" y="510" as="sourcePoint" />
            <mxPoint x="234" y="360" as="targetPoint" />
          </mxGeometry>
        </mxCell>
        <mxCell id="KhoYuqrmlgVew_wyf3ry-16" value="" style="endArrow=classic;html=1;rounded=0;entryX=0;entryY=0.5;entryDx=0;entryDy=0;" parent="1" source="KhoYuqrmlgVew_wyf3ry-1" target="KhoYuqrmlgVew_wyf3ry-5" edge="1">
          <mxGeometry width="50" height="50" relative="1" as="geometry">
            <mxPoint x="150" y="520" as="sourcePoint" />
            <mxPoint x="234" y="450" as="targetPoint" />
          </mxGeometry>
        </mxCell>
        <mxCell id="KhoYuqrmlgVew_wyf3ry-17" value="" style="endArrow=classic;html=1;rounded=0;entryX=0;entryY=0.5;entryDx=0;entryDy=0;" parent="1" source="KhoYuqrmlgVew_wyf3ry-1" target="KhoYuqrmlgVew_wyf3ry-6" edge="1">
          <mxGeometry width="50" height="50" relative="1" as="geometry">
            <mxPoint x="160" y="530" as="sourcePoint" />
            <mxPoint x="234" y="540" as="targetPoint" />
          </mxGeometry>
        </mxCell>
        <mxCell id="KhoYuqrmlgVew_wyf3ry-19" style="rounded=0;orthogonalLoop=1;jettySize=auto;html=1;entryX=0.996;entryY=0.593;entryDx=0;entryDy=0;entryPerimeter=0;dashed=1;" parent="1" source="KhoYuqrmlgVew_wyf3ry-8" target="OODzUO_T71VTLAaAEDP0-4" edge="1">
          <mxGeometry relative="1" as="geometry" />
        </mxCell>
        <mxCell id="KhoYuqrmlgVew_wyf3ry-22" value="&lt;b&gt;&quot;extend&quot;&lt;/b&gt;" style="text;html=1;align=center;verticalAlign=middle;whiteSpace=wrap;rounded=0;" parent="1" vertex="1">
          <mxGeometry x="415" y="146" width="60" height="30" as="geometry" />
        </mxCell>
        <mxCell id="KhoYuqrmlgVew_wyf3ry-23" value="&lt;b&gt;&quot;include&quot;&lt;/b&gt;" style="text;html=1;align=center;verticalAlign=middle;whiteSpace=wrap;rounded=0;" parent="1" vertex="1">
          <mxGeometry x="480" y="217" width="60" height="30" as="geometry" />
        </mxCell>
      </root>
    </mxGraphModel>
  </diagram>
</mxfile>
